<svg width="256" height="256" viewBox="0 0 256 256" fill="none" xmlns="http://www.w3.org/2000/svg">
  <!-- Background circle with gradient -->
  <defs>
    <linearGradient id="bgGradient" x1="0%" y1="0%" x2="100%" y2="100%">
      <stop offset="0%" style="stop-color:#4A9EFF;stop-opacity:1" />
      <stop offset="50%" style="stop-color:#2563EB;stop-opacity:1" />
      <stop offset="100%" style="stop-color:#1E40AF;stop-opacity:1" />
    </linearGradient>
    <linearGradient id="folderGradient" x1="0%" y1="0%" x2="100%" y2="100%">
      <stop offset="0%" style="stop-color:#FCD34D;stop-opacity:1" />
      <stop offset="100%" style="stop-color:#F59E0B;stop-opacity:1" />
    </linearGradient>
    <filter id="shadow">
      <feDropShadow dx="0" dy="2" stdDeviation="4" flood-opacity="0.25"/>
    </filter>
  </defs>
  
  <!-- Background -->
  <circle cx="128" cy="128" r="120" fill="url(#bgGradient)" filter="url(#shadow)"/>
  
  <!-- Main folder -->
  <path d="M64 80h40l12 16h76c8 0 16 8 16 16v80c0 8-8 16-16 16H80c-8 0-16-8-16-16V96c0-8 8-16 16-16z" 
        fill="url(#folderGradient)" filter="url(#shadow)"/>
  
  <!-- Folder tab -->
  <path d="M64 80h40l12 16H64V80z" fill="#FBBF24"/>
  
  <!-- Zen circle symbol in center -->
  <circle cx="128" cy="140" r="24" fill="none" stroke="white" stroke-width="3" opacity="0.9"/>
  <circle cx="128" cy="140" r="12" fill="white" opacity="0.9"/>
  <circle cx="128" cy="140" r="4" fill="url(#bgGradient)"/>
  
  <!-- Smart dots pattern -->
  <circle cx="100" cy="120" r="2" fill="white" opacity="0.7"/>
  <circle cx="156" cy="120" r="2" fill="white" opacity="0.7"/>
  <circle cx="100" cy="160" r="2" fill="white" opacity="0.7"/>
  <circle cx="156" cy="160" r="2" fill="white" opacity="0.7"/>
  
  <!-- Organizing lines -->
  <path d="M88 128h16M88 136h24M88 144h20" stroke="white" stroke-width="2" opacity="0.6" stroke-linecap="round"/>
  <path d="M152 128h16M152 136h12M152 144h16" stroke="white" stroke-width="2" opacity="0.6" stroke-linecap="round"/>
</svg>